<?xml version="1.0" encoding="UTF-8" standalone="no"?>
<!DOCTYPE svg PUBLIC "-//W3C//DTD SVG 1.1//EN"
 "http://www.w3.org/Graphics/SVG/1.1/DTD/svg11.dtd">
<!-- Generated by graphviz version 9.0.0 (20230911.1827)
 -->
<!-- Pages: 1 -->
<svg width="424pt" height="335pt"
 viewBox="0.00 0.00 423.92 334.77" xmlns="http://www.w3.org/2000/svg" xmlns:xlink="http://www.w3.org/1999/xlink">
<g id="graph0" class="graph" transform="scale(1 1) rotate(0) translate(4 330.77)">
<polygon fill="white" stroke="none" points="-4,4 -4,-330.77 419.92,-330.77 419.92,4 -4,4"/>
<!-- rsh -->
<g id="node1" class="node">
<title>rsh</title>
<ellipse fill="none" stroke="black" cx="85.78" cy="-133.23" rx="27" ry="18"/>
<text text-anchor="middle" x="85.78" y="-128.18" font-family="Times,serif" font-size="14.00">rsh</text>
</g>
<!-- frs -->
<g id="node2" class="node">
<title>frs</title>
<ellipse fill="none" stroke="black" cx="150.27" cy="-88.77" rx="27" ry="18"/>
<text text-anchor="middle" x="150.27" y="-83.72" font-family="Times,serif" font-size="14.00">frs</text>
</g>
<!-- rsh&#45;&#45;frs -->
<g id="edge1" class="edge">
<title>rsh&#45;&#45;frs</title>
<path fill="none" stroke="black" d="M109.77,-124.38C119.16,-118.72 129.52,-111.42 137.45,-104.83"/>
</g>
<!-- pzl -->
<g id="node3" class="node">
<title>pzl</title>
<ellipse fill="none" stroke="black" cx="27" cy="-85.3" rx="27" ry="18"/>
<text text-anchor="middle" x="27" y="-80.25" font-family="Times,serif" font-size="14.00">pzl</text>
</g>
<!-- rsh&#45;&#45;pzl -->
<g id="edge2" class="edge">
<title>rsh&#45;&#45;pzl</title>
<path fill="none" stroke="black" d="M74.71,-116.53C67.54,-109.49 58.05,-101.59 49.39,-95.42"/>
</g>
<!-- lsr -->
<g id="node4" class="node">
<title>lsr</title>
<ellipse fill="none" stroke="black" cx="99.52" cy="-66.37" rx="27" ry="18"/>
<text text-anchor="middle" x="99.52" y="-61.32" font-family="Times,serif" font-size="14.00">lsr</text>
</g>
<!-- rsh&#45;&#45;lsr -->
<g id="edge3" class="edge">
<title>rsh&#45;&#45;lsr</title>
<path fill="none" stroke="black" d="M95.5,-116.19C98.44,-106.48 100.89,-94.32 101.88,-84.44"/>
</g>
<!-- rzs -->
<g id="node5" class="node">
<title>rzs</title>
<ellipse fill="none" stroke="black" cx="158.65" cy="-139.53" rx="27" ry="18"/>
<text text-anchor="middle" x="158.65" y="-134.48" font-family="Times,serif" font-size="14.00">rzs</text>
</g>
<!-- rsh&#45;&#45;rzs -->
<g id="edge4" class="edge">
<title>rsh&#45;&#45;rzs</title>
<path fill="none" stroke="black" d="M109.89,-141.77C116.96,-142.78 124.73,-143.48 131.95,-143.75"/>
</g>
<!-- frs&#45;&#45;rsh -->
<g id="edge5" class="edge">
<title>frs&#45;&#45;rsh</title>
<path fill="none" stroke="black" d="M126.27,-97.63C116.88,-103.29 106.52,-110.59 98.59,-117.18"/>
</g>
<!-- frs&#45;&#45;lsr -->
<g id="edge6" class="edge">
<title>frs&#45;&#45;lsr</title>
<path fill="none" stroke="black" d="M133.45,-74.15C131.05,-72.94 128.53,-71.77 126,-70.69"/>
</g>
<!-- qnr -->
<g id="node6" class="node">
<title>qnr</title>
<ellipse fill="none" stroke="black" cx="230.71" cy="-120.73" rx="27" ry="18"/>
<text text-anchor="middle" x="230.71" y="-115.68" font-family="Times,serif" font-size="14.00">qnr</text>
</g>
<!-- frs&#45;&#45;qnr -->
<g id="edge7" class="edge">
<title>frs&#45;&#45;qnr</title>
<path fill="none" stroke="black" d="M168.37,-102.37C178.91,-107.58 192.37,-113.03 204.09,-116.89"/>
</g>
<!-- lhk -->
<g id="node7" class="node">
<title>lhk</title>
<ellipse fill="none" stroke="black" cx="166.26" cy="-18" rx="27" ry="18"/>
<text text-anchor="middle" x="166.26" y="-12.95" font-family="Times,serif" font-size="14.00">lhk</text>
</g>
<!-- frs&#45;&#45;lhk -->
<g id="edge8" class="edge">
<title>frs&#45;&#45;lhk</title>
<path fill="none" stroke="black" d="M160.23,-71.87C163.74,-61.12 166.83,-47.23 168.15,-36.24"/>
</g>
<!-- pzl&#45;&#45;rsh -->
<g id="edge9" class="edge">
<title>pzl&#45;&#45;rsh</title>
<path fill="none" stroke="black" d="M38.07,-102.01C45.24,-109.05 54.73,-116.94 63.38,-123.12"/>
</g>
<!-- pzl&#45;&#45;lsr -->
<g id="edge10" class="edge">
<title>pzl&#45;&#45;lsr</title>
<path fill="none" stroke="black" d="M54.41,-84.86C62.49,-83.16 71.19,-80.82 78.78,-78.28"/>
</g>
<!-- lsr&#45;&#45;rsh -->
<g id="edge11" class="edge">
<title>lsr&#45;&#45;rsh</title>
<path fill="none" stroke="black" d="M89.8,-83.42C86.86,-93.13 84.41,-105.29 83.41,-115.16"/>
</g>
<!-- lsr&#45;&#45;frs -->
<g id="edge12" class="edge">
<title>lsr&#45;&#45;frs</title>
<path fill="none" stroke="black" d="M116.33,-80.99C118.74,-82.21 121.25,-83.37 123.79,-84.45"/>
</g>
<!-- lsr&#45;&#45;pzl -->
<g id="edge13" class="edge">
<title>lsr&#45;&#45;pzl</title>
<path fill="none" stroke="black" d="M72.11,-66.82C64.03,-68.51 55.32,-70.86 47.73,-73.39"/>
</g>
<!-- lsr&#45;&#45;rzs -->
<g id="edge14" class="edge">
<title>lsr&#45;&#45;rzs</title>
<path fill="none" stroke="black" d="M106.67,-83.91C115.1,-96.87 128.9,-114.13 140.26,-126.04"/>
</g>
<!-- lsr&#45;&#45;lhk -->
<g id="edge15" class="edge">
<title>lsr&#45;&#45;lhk</title>
<path fill="none" stroke="black" d="M122.83,-57.15C133.31,-50.57 145.22,-41.78 153.96,-34.11"/>
</g>
<!-- rzs&#45;&#45;rsh -->
<g id="edge16" class="edge">
<title>rzs&#45;&#45;rsh</title>
<path fill="none" stroke="black" d="M134.53,-130.99C127.46,-129.98 119.69,-129.28 112.48,-129.01"/>
</g>
<!-- rzs&#45;&#45;lsr -->
<g id="edge17" class="edge">
<title>rzs&#45;&#45;lsr</title>
<path fill="none" stroke="black" d="M151.49,-121.99C143.06,-109.03 129.26,-91.77 117.91,-79.87"/>
</g>
<!-- rzs&#45;&#45;qnr -->
<g id="edge19" class="edge">
<title>rzs&#45;&#45;qnr</title>
<path fill="none" stroke="black" d="M185.89,-139.13C193.92,-137.45 202.57,-135.12 210.11,-132.6"/>
</g>
<!-- cmg -->
<g id="node8" class="node">
<title>cmg</title>
<ellipse fill="none" stroke="black" cx="214.39" cy="-74.49" rx="27.3" ry="18"/>
<text text-anchor="middle" x="214.39" y="-69.44" font-family="Times,serif" font-size="14.00">cmg</text>
</g>
<!-- rzs&#45;&#45;cmg -->
<g id="edge18" class="edge">
<title>rzs&#45;&#45;cmg</title>
<path fill="none" stroke="black" d="M177.87,-126.36C187.85,-116.38 199.39,-102.71 206.92,-91.85"/>
</g>
<!-- qnr&#45;&#45;frs -->
<g id="edge45" class="edge">
<title>qnr&#45;&#45;frs</title>
<path fill="none" stroke="black" d="M212.61,-107.13C202.07,-101.92 188.6,-96.47 176.88,-92.61"/>
</g>
<!-- qnr&#45;&#45;rzs -->
<g id="edge46" class="edge">
<title>qnr&#45;&#45;rzs</title>
<path fill="none" stroke="black" d="M203.46,-121.13C195.43,-122.81 186.78,-125.13 179.24,-127.66"/>
</g>
<!-- qnr&#45;&#45;cmg -->
<g id="edge47" class="edge">
<title>qnr&#45;&#45;cmg</title>
<path fill="none" stroke="black" d="M231.1,-102.4C230.07,-98.55 228.7,-94.51 227.15,-90.74"/>
</g>
<!-- nvd -->
<g id="node15" class="node">
<title>nvd</title>
<ellipse fill="none" stroke="black" cx="249.54" cy="-27.68" rx="27" ry="18"/>
<text text-anchor="middle" x="249.54" y="-22.63" font-family="Times,serif" font-size="14.00">nvd</text>
</g>
<!-- qnr&#45;&#45;nvd -->
<g id="edge48" class="edge">
<title>qnr&#45;&#45;nvd</title>
<path fill="none" stroke="black" d="M239.82,-103.44C244.88,-87.04 249.8,-62.51 251.34,-45.83"/>
</g>
<!-- lhk&#45;&#45;frs -->
<g id="edge49" class="edge">
<title>lhk&#45;&#45;frs</title>
<path fill="none" stroke="black" d="M156.3,-34.91C152.79,-45.65 149.69,-59.54 148.38,-70.53"/>
</g>
<!-- lhk&#45;&#45;lsr -->
<g id="edge50" class="edge">
<title>lhk&#45;&#45;lsr</title>
<path fill="none" stroke="black" d="M142.95,-27.22C132.47,-33.8 120.56,-42.59 111.82,-50.26"/>
</g>
<!-- lhk&#45;&#45;cmg -->
<g id="edge51" class="edge">
<title>lhk&#45;&#45;cmg</title>
<path fill="none" stroke="black" d="M173.66,-35.8C179.48,-44.15 187.6,-53.86 195.12,-61.52"/>
</g>
<!-- lhk&#45;&#45;nvd -->
<g id="edge52" class="edge">
<title>lhk&#45;&#45;nvd</title>
<path fill="none" stroke="black" d="M190.08,-27.03C200.27,-28.89 212.21,-30.31 222.71,-30.92"/>
</g>
<!-- cmg&#45;&#45;rzs -->
<g id="edge42" class="edge">
<title>cmg&#45;&#45;rzs</title>
<path fill="none" stroke="black" d="M195.17,-87.66C185.18,-97.64 173.64,-111.31 166.12,-122.17"/>
</g>
<!-- cmg&#45;&#45;qnr -->
<g id="edge43" class="edge">
<title>cmg&#45;&#45;qnr</title>
<path fill="none" stroke="black" d="M213.99,-92.81C215.03,-96.67 216.4,-100.7 217.94,-104.47"/>
</g>
<!-- cmg&#45;&#45;lhk -->
<g id="edge44" class="edge">
<title>cmg&#45;&#45;lhk</title>
<path fill="none" stroke="black" d="M207,-56.69C201.18,-48.34 193.05,-38.63 185.53,-30.97"/>
</g>
<!-- xhk -->
<g id="node9" class="node">
<title>xhk</title>
<ellipse fill="none" stroke="black" cx="342.84" cy="-247.53" rx="27" ry="18"/>
<text text-anchor="middle" x="342.84" y="-242.48" font-family="Times,serif" font-size="14.00">xhk</text>
</g>
<!-- hfx -->
<g id="node10" class="node">
<title>hfx</title>
<ellipse fill="none" stroke="black" cx="388.92" cy="-207" rx="27" ry="18"/>
<text text-anchor="middle" x="388.92" y="-201.95" font-family="Times,serif" font-size="14.00">hfx</text>
</g>
<!-- xhk&#45;&#45;hfx -->
<g id="edge20" class="edge">
<title>xhk&#45;&#45;hfx</title>
<path fill="none" stroke="black" d="M364.88,-236.92C369.84,-232.95 374.87,-228.39 379.07,-224.01"/>
</g>
<!-- rhn -->
<g id="node11" class="node">
<title>rhn</title>
<ellipse fill="none" stroke="black" cx="304.23" cy="-209.95" rx="27" ry="18"/>
<text text-anchor="middle" x="304.23" y="-204.9" font-family="Times,serif" font-size="14.00">rhn</text>
</g>
<!-- xhk&#45;&#45;rhn -->
<g id="edge21" class="edge">
<title>xhk&#45;&#45;rhn</title>
<path fill="none" stroke="black" d="M334.25,-230.2C331.58,-227.17 328.54,-224.09 325.44,-221.26"/>
</g>
<!-- bvb -->
<g id="node12" class="node">
<title>bvb</title>
<ellipse fill="none" stroke="black" cx="314.82" cy="-308.77" rx="27" ry="18"/>
<text text-anchor="middle" x="314.82" y="-303.72" font-family="Times,serif" font-size="14.00">bvb</text>
</g>
<!-- xhk&#45;&#45;bvb -->
<g id="edge22" class="edge">
<title>xhk&#45;&#45;bvb</title>
<path fill="none" stroke="black" d="M328.76,-263.31C324.14,-271.59 319.58,-281.77 316.63,-290.4"/>
</g>
<!-- ntq -->
<g id="node13" class="node">
<title>ntq</title>
<ellipse fill="none" stroke="black" cx="375.99" cy="-290.42" rx="27" ry="18"/>
<text text-anchor="middle" x="375.99" y="-285.37" font-family="Times,serif" font-size="14.00">ntq</text>
</g>
<!-- xhk&#45;&#45;ntq -->
<g id="edge23" class="edge">
<title>xhk&#45;&#45;ntq</title>
<path fill="none" stroke="black" d="M348.65,-265.48C351.15,-269.32 354.12,-273.31 357.18,-276.96"/>
</g>
<!-- jqt -->
<g id="node14" class="node">
<title>jqt</title>
<ellipse fill="none" stroke="black" cx="279" cy="-268.84" rx="27" ry="18"/>
<text text-anchor="middle" x="279" y="-263.79" font-family="Times,serif" font-size="14.00">jqt</text>
</g>
<!-- xhk&#45;&#45;jqt -->
<g id="edge24" class="edge">
<title>xhk&#45;&#45;jqt</title>
<path fill="none" stroke="black" d="M315.89,-249.57C309.93,-251.3 303.73,-253.44 298.15,-255.71"/>
</g>
<!-- hfx&#45;&#45;xhk -->
<g id="edge25" class="edge">
<title>hfx&#45;&#45;xhk</title>
<path fill="none" stroke="black" d="M366.89,-217.61C361.92,-221.58 356.89,-226.15 352.69,-230.52"/>
</g>
<!-- hfx&#45;&#45;rhn -->
<g id="edge26" class="edge">
<title>hfx&#45;&#45;rhn</title>
<path fill="none" stroke="black" d="M362.83,-201.63C352.2,-201.36 339.97,-201.79 329.43,-202.82"/>
</g>
<!-- hfx&#45;&#45;ntq -->
<g id="edge27" class="edge">
<title>hfx&#45;&#45;ntq</title>
<path fill="none" stroke="black" d="M380.5,-224.23C376.87,-238.2 373.85,-257.81 373.15,-272.07"/>
</g>
<!-- rhn&#45;&#45;xhk -->
<g id="edge28" class="edge">
<title>rhn&#45;&#45;xhk</title>
<path fill="none" stroke="black" d="M312.82,-227.28C315.49,-230.31 318.53,-233.39 321.63,-236.21"/>
</g>
<!-- rhn&#45;&#45;hfx -->
<g id="edge29" class="edge">
<title>rhn&#45;&#45;hfx</title>
<path fill="none" stroke="black" d="M330.32,-215.32C340.94,-215.59 353.18,-215.16 363.71,-214.13"/>
</g>
<!-- rhn&#45;&#45;bvb -->
<g id="edge30" class="edge">
<title>rhn&#45;&#45;bvb</title>
<path fill="none" stroke="black" d="M300.84,-228.18C300.86,-246.15 303.76,-273.41 307.53,-291.16"/>
</g>
<!-- rhn&#45;&#45;jqt -->
<g id="edge31" class="edge">
<title>rhn&#45;&#45;jqt</title>
<path fill="none" stroke="black" d="M290.59,-225.78C286.56,-233.48 282.68,-242.76 280.17,-250.74"/>
</g>
<!-- bvb&#45;&#45;xhk -->
<g id="edge32" class="edge">
<title>bvb&#45;&#45;xhk</title>
<path fill="none" stroke="black" d="M328.91,-293C333.52,-284.71 338.09,-274.54 341.04,-265.9"/>
</g>
<!-- bvb&#45;&#45;rhn -->
<g id="edge33" class="edge">
<title>bvb&#45;&#45;rhn</title>
<path fill="none" stroke="black" d="M318.21,-290.54C318.19,-272.57 315.29,-245.31 311.52,-227.56"/>
</g>
<!-- bvb&#45;&#45;ntq -->
<g id="edge34" class="edge">
<title>bvb&#45;&#45;ntq</title>
<path fill="none" stroke="black" d="M341.97,-307.58C346.75,-306.32 351.65,-304.79 356.19,-303.14"/>
</g>
<!-- ntq&#45;&#45;xhk -->
<g id="edge35" class="edge">
<title>ntq&#45;&#45;xhk</title>
<path fill="none" stroke="black" d="M370.18,-272.48C367.69,-268.63 364.72,-264.64 361.65,-260.99"/>
</g>
<!-- ntq&#45;&#45;hfx -->
<g id="edge36" class="edge">
<title>ntq&#45;&#45;hfx</title>
<path fill="none" stroke="black" d="M384.4,-273.19C388.04,-259.23 391.05,-239.61 391.75,-225.35"/>
</g>
<!-- ntq&#45;&#45;bvb -->
<g id="edge37" class="edge">
<title>ntq&#45;&#45;bvb</title>
<path fill="none" stroke="black" d="M348.84,-291.62C344.06,-292.88 339.16,-294.41 334.62,-296.06"/>
</g>
<!-- ntq&#45;&#45;jqt -->
<g id="edge38" class="edge">
<title>ntq&#45;&#45;jqt</title>
<path fill="none" stroke="black" d="M354.27,-279.61C340.07,-275.28 321.4,-271.06 306.21,-268.7"/>
</g>
<!-- jqt&#45;&#45;xhk -->
<g id="edge39" class="edge">
<title>jqt&#45;&#45;xhk</title>
<path fill="none" stroke="black" d="M305.96,-266.8C311.92,-265.08 318.12,-262.94 323.69,-260.67"/>
</g>
<!-- jqt&#45;&#45;rhn -->
<g id="edge40" class="edge">
<title>jqt&#45;&#45;rhn</title>
<path fill="none" stroke="black" d="M292.64,-253.01C296.67,-245.31 300.55,-236.03 303.06,-228.05"/>
</g>
<!-- jqt&#45;&#45;ntq -->
<g id="edge41" class="edge">
<title>jqt&#45;&#45;ntq</title>
<path fill="none" stroke="black" d="M300.72,-279.66C314.92,-283.99 333.58,-288.21 348.78,-290.57"/>
</g>
<!-- nvd&#45;&#45;qnr -->
<g id="edge53" class="edge">
<title>nvd&#45;&#45;qnr</title>
<path fill="none" stroke="black" d="M240.42,-44.97C235.36,-61.37 230.45,-85.9 228.9,-102.57"/>
</g>
<!-- nvd&#45;&#45;lhk -->
<g id="edge54" class="edge">
<title>nvd&#45;&#45;lhk</title>
<path fill="none" stroke="black" d="M225.72,-18.65C215.53,-16.79 203.59,-15.37 193.09,-14.76"/>
</g>
</g>
</svg>
